<svg id="svg" version="1.1" xmlns="http://www.w3.org/2000/svg" xmlns:xlink="http://www.w3.org/1999/xlink" width="400" height="400" viewBox="0, 0, 400,400"><g id="svgg"><path id="path0" d="M288.753 16.800 C 288.727 16.910,288.745 20.177,288.792 24.061 C 288.912 33.874,290.866 32.868,271.879 32.771 L 256.607 32.693 256.743 39.907 C 256.925 49.562,257.565 48.925,247.863 48.742 L 240.605 48.605 240.742 55.863 C 240.931 65.908,242.899 64.868,223.879 64.771 L 208.607 64.693 208.743 71.907 C 208.931 81.900,210.894 80.868,191.879 80.771 L 176.607 80.693 176.743 87.907 C 176.873 94.820,176.843 95.157,176.030 95.970 L 175.181 96.819 127.928 96.790 L 80.674 96.762 80.693 104.081 L 80.711 111.400 88.255 111.503 C 92.405 111.559,96.056 111.701,96.370 111.817 C 96.683 111.933,111.025 112.019,128.242 112.007 C 149.911 111.993,159.625 112.117,159.807 112.411 C 159.951 112.644,160.046 115.944,160.019 119.744 C 159.991 123.544,160.085 126.956,160.227 127.326 C 160.465 127.947,162.327 128.000,184.019 128.000 C 199.899 128.000,207.637 128.135,207.810 128.417 C 207.952 128.646,208.051 132.021,208.031 135.917 C 208.011 139.812,208.142 143.226,208.323 143.503 C 208.582 143.900,213.635 143.985,232.226 143.903 L 255.800 143.800 255.909 136.229 C 255.992 130.442,255.898 128.581,255.509 128.330 C 255.229 128.150,248.201 128.010,239.892 128.019 C 231.582 128.029,224.607 127.928,224.392 127.795 C 224.159 127.651,224.000 124.501,224.000 120.019 C 224.000 111.039,224.942 111.952,215.744 112.019 C 211.944 112.046,208.647 111.953,208.418 111.811 C 207.749 111.397,207.859 97.015,208.535 96.454 C 208.902 96.149,213.906 95.977,224.435 95.905 L 239.800 95.800 239.909 88.342 C 239.990 82.771,240.151 80.773,240.544 80.447 C 240.899 80.152,246.060 79.976,256.435 79.905 L 271.800 79.800 271.909 72.342 C 272.041 63.226,271.213 64.046,280.430 63.909 L 287.800 63.800 287.909 56.430 C 288.047 47.119,287.266 47.921,296.086 48.038 C 304.920 48.154,304.154 48.920,304.038 40.086 C 303.919 31.137,303.163 31.880,312.207 32.060 C 320.560 32.226,319.671 33.246,319.514 23.679 L 319.400 16.758 304.100 16.679 C 295.685 16.636,288.779 16.690,288.753 16.800 M144.783 176.800 C 144.774 176.910,144.765 183.840,144.762 192.200 L 144.757 207.400 152.079 207.400 L 159.400 207.400 159.400 192.058 L 159.400 176.717 152.100 176.658 C 148.085 176.626,144.792 176.690,144.783 176.800 M192.783 192.800 C 192.774 192.910,192.765 199.840,192.762 208.200 L 192.757 223.400 200.079 223.400 L 207.400 223.400 207.400 208.058 L 207.400 192.717 200.100 192.658 C 196.085 192.626,192.792 192.690,192.783 192.800 M80.783 272.800 C 80.774 272.910,80.765 279.840,80.762 288.200 L 80.757 303.400 96.079 303.400 L 111.400 303.400 111.400 288.079 L 111.400 272.759 96.100 272.679 C 87.685 272.636,80.792 272.690,80.783 272.800 M176.000 304.105 L 176.000 319.609 191.700 319.505 L 207.400 319.400 207.400 304.069 L 207.400 288.738 191.700 288.669 L 176.000 288.600 176.000 304.105 " stroke="none" fill="#debe6c" fill-rule="evenodd"></path><path id="path1" d="M112.440 208.552 C 112.123 208.934,112.015 211.371,112.091 216.452 L 112.200 223.800 119.548 223.909 C 124.629 223.985,127.066 223.877,127.448 223.560 C 128.191 222.944,128.256 209.216,127.520 208.480 C 126.784 207.744,113.056 207.809,112.440 208.552 M273.600 214.538 C 273.600 222.828,273.248 222.400,280.070 222.400 C 286.699 222.400,286.400 222.755,286.400 214.892 C 286.400 211.294,286.562 208.747,286.800 208.600 C 287.061 208.439,287.200 210.929,287.200 215.776 L 287.200 223.200 280.100 223.200 L 273.000 223.200 273.139 215.754 C 273.253 209.643,273.181 208.340,272.739 208.487 C 272.016 208.727,271.738 222.603,272.440 223.448 C 272.800 223.882,274.515 224.000,280.449 224.000 L 288.000 224.000 288.000 216.480 C 288.000 207.201,288.724 208.000,280.320 208.000 L 273.600 208.000 273.600 214.538 M127.200 216.000 L 127.200 223.200 120.000 223.200 L 112.800 223.200 112.800 216.000 L 112.800 208.800 120.000 208.800 L 127.200 208.800 127.200 216.000 M114.300 210.433 C 113.237 211.598,113.262 220.770,114.331 221.738 C 115.468 222.766,124.796 222.709,125.738 221.669 C 126.766 220.532,126.709 211.204,125.669 210.262 C 124.512 209.215,115.285 209.354,114.300 210.433 M96.489 224.471 C 95.792 225.168,95.784 254.824,96.480 255.520 C 96.817 255.857,99.058 256.000,104.000 256.000 C 112.746 256.000,112.000 255.254,112.000 264.000 C 112.000 272.748,111.249 272.000,120.031 272.000 C 125.522 272.000,127.203 272.122,127.556 272.547 C 127.881 272.939,127.980 277.447,127.905 288.447 L 127.800 303.800 120.430 303.909 C 111.139 304.047,111.958 303.218,112.091 312.356 L 112.200 319.800 119.658 319.909 C 125.229 319.990,127.227 320.151,127.553 320.544 C 127.848 320.899,128.024 326.060,128.095 336.435 L 128.200 351.800 135.658 351.909 C 144.856 352.043,144.047 351.204,143.909 360.452 L 143.800 367.800 136.356 367.909 C 127.218 368.042,128.047 368.861,127.909 359.570 L 127.800 352.200 120.342 352.091 C 114.771 352.010,112.773 351.849,112.447 351.456 C 112.152 351.101,111.976 345.940,111.905 335.565 L 111.800 320.200 104.356 320.091 C 98.455 320.005,96.818 320.096,96.459 320.528 C 96.136 320.918,95.977 327.769,95.903 344.437 L 95.800 367.800 88.430 367.909 C 83.820 367.978,80.861 368.183,80.530 368.458 C 79.754 369.102,79.766 382.908,80.542 383.552 C 80.941 383.883,102.117 383.975,160.442 383.901 L 239.800 383.800 239.800 376.000 L 239.800 368.200 232.342 368.091 C 223.226 367.959,224.046 368.787,223.909 359.570 L 223.800 352.200 216.430 352.091 C 207.200 351.954,208.000 352.719,208.000 344.031 C 208.000 339.065,207.857 336.817,207.520 336.480 C 207.164 336.124,203.158 336.000,191.969 336.000 C 178.438 336.000,176.842 335.932,176.349 335.339 C 175.534 334.357,175.537 273.640,176.352 272.658 C 176.847 272.061,179.074 272.000,200.449 272.000 L 224.000 272.000 224.000 264.480 C 224.000 259.164,224.141 256.819,224.480 256.480 C 225.232 255.728,254.934 255.797,255.560 256.552 C 255.877 256.934,255.985 259.371,255.909 264.452 L 255.800 271.800 240.000 272.000 L 224.200 272.200 224.200 312.000 L 224.200 351.800 231.658 351.909 C 240.774 352.041,239.954 351.213,240.091 360.430 L 240.200 367.800 256.100 367.905 L 272.000 368.009 272.000 360.485 C 272.000 351.153,271.153 352.000,280.480 352.000 L 288.000 352.000 288.000 336.449 C 288.000 324.030,288.107 320.809,288.530 320.458 C 288.861 320.183,291.820 319.978,296.430 319.909 L 303.800 319.800 303.903 296.445 C 303.978 279.528,303.882 272.940,303.554 272.545 C 303.204 272.123,301.511 272.000,296.031 272.000 C 287.247 272.000,288.000 272.753,288.000 263.969 C 288.000 255.281,287.200 256.046,296.430 255.909 L 303.800 255.800 303.905 240.447 C 303.981 229.309,303.883 224.941,303.549 224.538 C 303.179 224.093,301.607 224.004,295.644 224.091 L 288.200 224.200 288.000 232.000 L 287.800 239.800 240.439 239.902 C 206.711 239.974,192.925 240.130,192.548 240.443 C 192.150 240.774,191.990 242.743,191.909 248.342 L 191.800 255.800 168.445 255.903 C 151.528 255.978,144.940 255.882,144.545 255.554 C 144.123 255.204,144.000 253.511,144.000 248.031 C 144.000 243.065,143.857 240.817,143.520 240.480 C 143.164 240.124,139.158 240.000,127.969 240.000 C 115.948 240.000,112.809 239.893,112.458 239.470 C 112.183 239.139,111.978 236.180,111.909 231.570 L 111.800 224.200 104.389 224.091 C 98.961 224.012,96.846 224.114,96.489 224.471 M111.200 232.224 C 111.200 237.071,111.061 239.561,110.800 239.400 C 110.562 239.253,110.400 236.706,110.400 233.108 C 110.400 225.254,110.689 225.600,104.138 225.600 C 97.003 225.600,97.600 224.279,97.600 240.069 C 97.600 255.936,96.803 254.400,105.038 254.400 C 108.683 254.400,111.253 254.562,111.400 254.800 C 111.561 255.061,109.071 255.200,104.224 255.200 L 96.800 255.200 96.800 240.000 L 96.800 224.800 104.000 224.800 L 111.200 224.800 111.200 232.224 M303.200 240.000 L 303.200 255.200 295.776 255.200 C 290.929 255.200,288.439 255.061,288.600 254.800 C 288.747 254.562,291.294 254.400,294.892 254.400 C 303.216 254.400,302.400 255.957,302.400 240.070 C 302.400 224.222,302.985 225.595,296.238 225.613 C 289.377 225.632,289.615 225.353,289.546 233.464 C 289.478 241.295,289.278 240.401,289.105 231.500 L 288.975 224.800 296.088 224.800 L 303.200 224.800 303.200 240.000 M143.200 248.224 C 143.200 253.071,143.061 255.561,142.800 255.400 C 142.562 255.253,142.400 252.706,142.400 249.108 C 142.400 240.757,144.133 241.600,126.962 241.600 C 117.983 241.600,112.757 241.454,112.600 241.200 C 112.437 240.936,117.596 240.800,127.776 240.800 L 143.200 240.800 143.200 248.224 M287.600 241.200 C 287.600 241.464,271.933 241.600,241.400 241.600 C 186.688 241.600,193.600 240.472,193.600 249.400 C 193.600 253.267,193.449 255.600,193.200 255.600 C 192.948 255.600,192.800 252.867,192.800 248.200 L 192.800 240.800 240.200 240.800 C 271.533 240.800,287.600 240.936,287.600 241.200 M255.400 254.800 C 255.563 255.064,250.330 255.200,240.000 255.200 C 229.670 255.200,224.437 255.064,224.600 254.800 C 224.758 254.545,230.330 254.400,240.000 254.400 C 249.670 254.400,255.242 254.545,255.400 254.800 M113.600 262.892 C 113.600 270.875,113.129 270.400,121.038 270.400 C 124.683 270.400,127.253 270.562,127.400 270.800 C 127.561 271.061,125.071 271.200,120.224 271.200 L 112.800 271.200 112.800 263.776 C 112.800 258.929,112.939 256.439,113.200 256.600 C 113.438 256.747,113.600 259.294,113.600 262.892 M223.200 263.800 L 223.200 271.200 199.776 271.200 C 184.263 271.200,176.436 271.065,176.600 270.800 C 176.760 270.541,184.627 270.400,198.892 270.400 C 225.371 270.400,222.400 271.335,222.400 263.005 C 222.400 257.670,222.528 256.400,223.067 256.400 C 223.140 256.400,223.200 259.730,223.200 263.800 M287.200 264.024 C 287.200 269.004,287.061 271.562,286.800 271.400 C 286.558 271.250,286.400 268.351,286.400 264.043 C 286.400 257.791,286.521 256.400,287.067 256.400 C 287.140 256.400,287.200 259.831,287.200 264.024 M191.600 257.200 C 191.600 257.462,183.541 257.600,168.224 257.600 C 153.071 257.600,144.760 257.459,144.600 257.200 C 144.436 256.935,152.329 256.800,167.976 256.800 C 183.459 256.800,191.600 256.938,191.600 257.200 M257.498 267.879 C 257.426 270.036,257.367 268.380,257.367 264.200 C 257.366 260.020,257.425 258.256,257.498 260.279 C 257.570 262.303,257.571 265.723,257.498 267.879 M129.600 288.224 C 129.600 298.208,129.460 303.600,129.200 303.600 C 128.940 303.600,128.800 298.125,128.800 287.976 C 128.800 277.663,128.936 272.437,129.200 272.600 C 129.455 272.758,129.600 278.404,129.600 288.224 M175.200 280.024 C 175.200 285.004,175.061 287.562,174.800 287.400 C 174.558 287.250,174.400 284.351,174.400 280.043 C 174.400 273.791,174.521 272.400,175.067 272.400 C 175.140 272.400,175.200 275.831,175.200 280.024 M255.600 273.200 C 255.600 273.459,250.600 273.600,241.400 273.600 C 227.733 273.600,227.170 273.630,226.400 274.400 C 225.260 275.540,225.126 348.413,226.262 349.669 C 226.848 350.316,227.623 350.400,233.038 350.400 C 236.683 350.400,239.253 350.562,239.400 350.800 C 239.561 351.061,237.071 351.200,232.224 351.200 L 224.800 351.200 224.800 312.000 L 224.800 272.800 240.200 272.800 C 250.200 272.800,255.600 272.940,255.600 273.200 M303.200 296.000 L 303.200 319.200 295.776 319.200 C 290.929 319.200,288.439 319.061,288.600 318.800 C 288.747 318.562,291.294 318.400,294.892 318.400 C 303.352 318.400,302.400 321.231,302.400 296.070 C 302.400 270.786,303.332 273.600,294.962 273.600 C 291.317 273.600,288.747 273.438,288.600 273.200 C 288.439 272.939,290.929 272.800,295.776 272.800 L 303.200 272.800 303.200 296.000 M127.600 305.200 C 127.600 305.449,125.267 305.600,121.400 305.600 C 113.321 305.600,113.600 305.369,113.600 312.069 C 113.600 318.696,113.253 318.400,121.038 318.400 C 124.683 318.400,127.253 318.562,127.400 318.800 C 127.561 319.061,125.071 319.200,120.224 319.200 L 112.800 319.200 112.800 312.000 L 112.800 304.800 120.200 304.800 C 124.867 304.800,127.600 304.948,127.600 305.200 M129.600 334.892 C 129.600 352.121,128.775 350.400,137.038 350.400 C 140.683 350.400,143.253 350.562,143.400 350.800 C 143.561 351.061,141.071 351.200,136.224 351.200 L 128.800 351.200 128.800 335.776 C 128.800 325.596,128.936 320.437,129.200 320.600 C 129.454 320.757,129.600 325.960,129.600 334.892 M175.200 328.024 C 175.200 333.004,175.061 335.562,174.800 335.400 C 174.558 335.250,174.400 332.351,174.400 328.043 C 174.400 321.791,174.521 320.400,175.067 320.400 C 175.140 320.400,175.200 323.831,175.200 328.024 M287.200 335.800 L 287.200 351.200 279.776 351.200 C 274.929 351.200,272.439 351.061,272.600 350.800 C 272.747 350.562,275.294 350.400,278.892 350.400 C 287.242 350.400,286.400 352.126,286.400 335.005 C 286.400 322.592,286.500 320.400,287.067 320.400 C 287.140 320.400,287.200 327.330,287.200 335.800 M111.200 336.224 C 111.200 346.404,111.064 351.563,110.800 351.400 C 110.546 351.243,110.400 346.040,110.400 337.108 C 110.400 320.051,111.025 321.600,104.138 321.600 C 96.834 321.600,97.600 318.811,97.600 345.400 C 97.600 359.933,97.462 367.600,97.200 367.600 C 96.938 367.600,96.800 359.533,96.800 344.200 L 96.800 320.800 104.000 320.800 L 111.200 320.800 111.200 336.224 M207.200 344.224 C 207.200 349.071,207.061 351.561,206.800 351.400 C 206.562 351.253,206.400 348.706,206.400 345.108 C 206.400 336.757,208.133 337.600,190.962 337.600 C 181.983 337.600,176.757 337.454,176.600 337.200 C 176.437 336.936,181.596 336.800,191.776 336.800 L 207.200 336.800 207.200 344.224 M288.190 352.500 C 288.089 352.775,287.960 356.330,287.903 360.400 L 287.800 367.800 280.000 368.000 L 272.200 368.200 272.091 375.644 C 272.005 381.595,272.094 383.180,272.536 383.547 C 272.942 383.884,279.316 383.979,296.445 383.903 L 319.800 383.800 319.909 376.452 C 320.047 367.191,320.801 368.000,312.031 368.000 C 303.249 368.000,304.000 368.748,304.000 360.000 C 304.000 355.058,303.857 352.817,303.520 352.480 C 302.822 351.782,288.448 351.801,288.190 352.500 M145.600 360.224 C 145.600 364.875,145.452 367.600,145.200 367.600 C 144.947 367.600,144.800 364.792,144.800 359.976 C 144.800 354.996,144.939 352.438,145.200 352.600 C 145.443 352.750,145.600 355.737,145.600 360.224 M241.600 358.892 C 241.600 367.216,240.043 366.400,255.930 366.400 C 271.958 366.400,270.400 367.201,270.400 358.962 C 270.400 355.317,270.562 352.747,270.800 352.600 C 271.061 352.439,271.200 354.929,271.200 359.776 L 271.200 367.200 256.000 367.200 L 240.800 367.200 240.800 359.776 C 240.800 354.929,240.939 352.439,241.200 352.600 C 241.438 352.747,241.600 355.294,241.600 358.892 M127.200 360.224 C 127.200 365.071,127.061 367.561,126.800 367.400 C 126.562 367.253,126.400 364.706,126.400 361.108 C 126.400 353.125,126.871 353.600,118.962 353.600 C 115.317 353.600,112.747 353.438,112.600 353.200 C 112.439 352.939,114.929 352.800,119.776 352.800 L 127.200 352.800 127.200 360.224 M223.200 360.224 C 223.200 365.071,223.061 367.561,222.800 367.400 C 222.562 367.253,222.400 364.706,222.400 361.108 C 222.400 353.125,222.871 353.600,214.962 353.600 C 211.317 353.600,208.747 353.438,208.600 353.200 C 208.439 352.939,210.929 352.800,215.776 352.800 L 223.200 352.800 223.200 360.224 M303.200 360.224 C 303.200 365.071,303.061 367.561,302.800 367.400 C 302.562 367.253,302.400 364.706,302.400 361.108 C 302.400 353.263,302.674 353.596,296.238 353.613 C 289.377 353.632,289.615 353.353,289.546 361.464 C 289.478 369.295,289.278 368.401,289.105 359.500 L 288.975 352.800 296.088 352.800 L 303.200 352.800 303.200 360.224 M95.600 369.200 C 95.600 369.449,93.267 369.600,89.400 369.600 C 81.321 369.600,81.600 369.369,81.600 376.069 C 81.600 380.037,81.722 381.072,82.262 381.669 C 83.242 382.751,236.473 382.820,237.669 381.738 C 238.303 381.164,238.400 380.412,238.400 376.070 C 238.400 369.283,238.764 369.600,230.962 369.600 C 227.317 369.600,224.747 369.438,224.600 369.200 C 224.439 368.939,226.929 368.800,231.776 368.800 L 239.200 368.800 239.200 376.000 L 239.200 383.200 160.000 383.200 L 80.800 383.200 80.800 376.000 L 80.800 368.800 88.200 368.800 C 92.867 368.800,95.600 368.948,95.600 369.200 M143.600 369.200 C 143.600 369.452,140.875 369.600,136.224 369.600 C 131.737 369.600,128.750 369.443,128.600 369.200 C 128.438 368.939,130.996 368.800,135.976 368.800 C 140.792 368.800,143.600 368.947,143.600 369.200 M287.600 369.200 C 287.600 369.449,285.291 369.605,281.500 369.613 C 273.350 369.631,273.600 369.428,273.600 376.033 C 273.600 383.154,270.956 382.400,295.930 382.400 C 321.022 382.400,318.400 383.139,318.400 376.070 C 318.400 369.283,318.764 369.600,310.962 369.600 C 307.317 369.600,304.747 369.438,304.600 369.200 C 304.439 368.939,306.929 368.800,311.776 368.800 L 319.200 368.800 319.200 376.000 L 319.200 383.200 296.100 383.200 L 273.000 383.200 273.000 376.000 L 273.000 368.800 280.300 368.800 C 284.900 368.800,287.600 368.948,287.600 369.200 " stroke="none" fill="#4ba4fc" fill-rule="evenodd"></path><path id="path2" d="M288.058 16.130 C 287.783 16.461,287.578 19.420,287.509 24.030 L 287.400 31.400 272.035 31.505 C 261.660 31.576,256.499 31.752,256.144 32.047 C 255.751 32.373,255.590 34.371,255.509 39.942 L 255.400 47.400 247.942 47.509 C 238.826 47.641,239.646 46.813,239.509 56.030 L 239.400 63.400 224.035 63.505 C 213.660 63.576,208.499 63.752,208.144 64.047 C 207.751 64.373,207.590 66.371,207.509 71.942 L 207.400 79.400 192.035 79.505 C 181.660 79.576,176.499 79.752,176.144 80.047 C 175.751 80.373,175.590 82.371,175.509 87.942 L 175.400 95.400 128.039 95.502 C 93.848 95.575,80.528 95.728,80.139 96.051 C 79.577 96.517,79.315 110.393,79.843 111.767 C 80.052 112.312,81.100 112.400,87.410 112.400 C 97.020 112.400,96.000 111.445,96.000 120.443 C 96.000 126.212,96.118 128.004,96.500 128.018 C 96.775 128.028,103.722 128.020,111.938 128.001 C 122.773 127.975,127.030 128.093,127.438 128.432 C 127.884 128.802,128.000 130.452,128.000 136.449 C 128.000 142.206,128.119 144.008,128.500 144.033 C 128.775 144.051,132.115 144.037,135.923 144.003 C 144.771 143.922,144.000 143.116,144.000 152.449 C 144.000 158.216,144.118 160.003,144.500 160.012 C 144.775 160.019,155.325 160.014,167.944 160.000 C 184.713 159.982,191.038 160.100,191.444 160.437 C 191.882 160.800,192.000 162.460,192.000 168.225 C 192.000 172.707,192.156 175.649,192.402 175.801 C 192.624 175.938,203.174 176.033,215.847 176.013 C 232.706 175.986,239.038 176.099,239.444 176.437 C 239.882 176.800,240.000 178.460,240.000 184.225 C 240.000 188.920,240.151 191.646,240.421 191.813 C 240.652 191.956,247.599 192.049,255.859 192.019 C 266.778 191.980,271.029 192.092,271.438 192.432 C 271.886 192.804,272.000 194.510,272.000 200.863 C 272.000 208.614,272.021 208.817,272.774 208.414 C 273.841 207.843,286.903 207.863,287.477 208.437 C 287.793 208.753,288.140 208.753,288.731 208.437 C 289.904 207.809,302.887 207.847,303.520 208.480 C 304.138 209.098,304.200 222.840,303.588 223.452 C 303.306 223.734,303.368 224.231,303.786 225.032 C 304.312 226.040,304.395 226.083,304.398 225.345 C 304.401 224.055,305.635 223.959,321.425 224.020 C 329.253 224.051,335.743 223.990,335.848 223.885 C 335.985 223.748,336.119 197.883,336.010 192.500 C 336.002 192.118,334.218 192.000,328.449 192.000 C 319.116 192.000,319.922 192.771,320.003 183.923 C 320.037 180.115,320.051 176.775,320.033 176.500 C 320.008 176.119,318.206 176.000,312.449 176.000 C 303.116 176.000,303.922 176.771,304.003 167.923 C 304.037 164.115,304.051 160.775,304.033 160.500 C 304.008 160.119,302.206 160.000,296.449 160.000 C 287.116 160.000,287.922 160.771,288.003 151.923 C 288.037 148.115,288.051 144.775,288.033 144.500 C 288.008 144.119,286.212 144.000,280.480 144.000 C 271.177 144.000,272.000 144.783,272.000 135.934 C 272.000 127.206,271.226 127.914,280.625 128.038 C 284.463 128.089,287.703 128.030,287.826 127.907 C 287.949 127.785,288.033 117.145,288.013 104.262 C 287.970 76.521,286.766 79.908,296.625 80.038 C 300.463 80.089,303.708 80.025,303.837 79.897 C 303.965 79.768,304.047 72.747,304.019 64.294 C 303.975 51.195,304.055 48.852,304.558 48.435 C 304.984 48.081,307.148 47.971,312.376 48.037 C 316.353 48.087,319.692 48.042,319.797 47.937 C 320.323 47.410,320.459 16.283,319.936 15.952 C 318.979 15.345,288.568 15.515,288.058 16.130 M319.514 23.679 C 319.671 33.246,320.560 32.226,312.207 32.060 C 303.163 31.880,303.919 31.137,304.038 40.086 C 304.154 48.920,304.920 48.154,296.086 48.038 C 287.266 47.921,288.047 47.119,287.909 56.430 L 287.800 63.800 280.430 63.909 C 271.213 64.046,272.041 63.226,271.909 72.342 L 271.800 79.800 256.435 79.905 C 246.060 79.976,240.899 80.152,240.544 80.447 C 240.151 80.773,239.990 82.771,239.909 88.342 L 239.800 95.800 224.435 95.905 C 213.906 95.977,208.902 96.149,208.535 96.454 C 207.859 97.015,207.749 111.397,208.418 111.811 C 208.647 111.953,211.944 112.046,215.744 112.019 C 224.942 111.952,224.000 111.039,224.000 120.019 C 224.000 124.501,224.159 127.651,224.392 127.795 C 224.607 127.928,231.582 128.029,239.892 128.019 C 248.201 128.010,255.229 128.150,255.509 128.330 C 255.898 128.581,255.992 130.442,255.909 136.229 L 255.800 143.800 232.226 143.903 C 213.635 143.985,208.582 143.900,208.323 143.503 C 208.142 143.226,208.011 139.812,208.031 135.917 C 208.051 132.021,207.952 128.646,207.810 128.417 C 207.637 128.135,199.899 128.000,184.019 128.000 C 162.327 128.000,160.465 127.947,160.227 127.326 C 160.085 126.956,159.991 123.544,160.019 119.744 C 160.046 115.944,159.951 112.644,159.807 112.411 C 159.625 112.117,149.911 111.993,128.242 112.007 C 111.025 112.019,96.683 111.933,96.370 111.817 C 96.056 111.701,92.405 111.559,88.255 111.503 L 80.711 111.400 80.693 104.081 L 80.674 96.762 127.928 96.790 L 175.181 96.819 176.030 95.970 C 176.843 95.157,176.873 94.820,176.743 87.907 L 176.607 80.693 191.879 80.771 C 210.894 80.868,208.931 81.900,208.743 71.907 L 208.607 64.693 223.879 64.771 C 242.899 64.868,240.931 65.908,240.742 55.863 L 240.605 48.605 247.863 48.742 C 257.565 48.925,256.925 49.562,256.743 39.907 L 256.607 32.693 271.879 32.771 C 290.866 32.868,288.912 33.874,288.792 24.061 C 288.745 20.177,288.727 16.910,288.753 16.800 C 288.779 16.690,295.685 16.636,304.100 16.679 L 319.400 16.758 319.514 23.679 M144.080 176.080 C 143.451 176.709,143.389 206.458,144.014 207.626 C 144.521 208.573,159.000 208.840,159.920 207.920 C 160.861 206.979,160.580 176.525,159.626 176.014 C 158.490 175.406,144.695 175.465,144.080 176.080 M159.400 192.058 L 159.400 207.400 152.079 207.400 L 144.757 207.400 144.762 192.200 C 144.765 183.840,144.774 176.910,144.783 176.800 C 144.792 176.690,148.085 176.626,152.100 176.658 L 159.400 176.717 159.400 192.058 M192.229 192.229 C 191.464 192.993,191.265 222.226,192.014 223.626 C 192.521 224.573,207.000 224.840,207.920 223.920 C 208.861 222.979,208.580 192.525,207.626 192.014 C 206.274 191.291,192.981 191.476,192.229 192.229 M207.400 208.058 L 207.400 223.400 200.079 223.400 L 192.757 223.400 192.762 208.200 C 192.765 199.840,192.774 192.910,192.783 192.800 C 192.792 192.690,196.085 192.626,200.100 192.658 L 207.400 192.717 207.400 208.058 M127.908 222.709 C 127.780 223.198,127.253 223.767,126.738 223.974 C 126.153 224.208,126.040 224.359,126.438 224.375 C 127.251 224.407,128.536 223.007,128.311 222.333 C 128.214 222.043,128.040 222.206,127.908 222.709 M288.040 222.873 C 288.008 223.733,287.781 223.973,286.900 224.080 L 285.800 224.213 286.897 224.451 C 288.236 224.740,288.774 224.141,288.376 222.800 L 288.080 221.800 288.040 222.873 M111.467 223.467 C 111.324 223.610,111.366 223.923,111.560 224.163 C 111.755 224.403,112.002 224.960,112.111 225.400 C 112.289 226.125,112.312 226.115,112.354 225.300 C 112.386 224.662,112.662 224.386,113.300 224.354 C 114.115 224.312,114.125 224.289,113.400 224.111 C 112.960 224.002,112.403 223.755,112.163 223.560 C 111.923 223.366,111.610 223.324,111.467 223.467 M224.040 270.873 C 224.008 271.733,223.781 271.973,222.900 272.080 L 221.800 272.213 222.897 272.451 C 224.236 272.740,224.774 272.141,224.376 270.800 L 224.080 269.800 224.040 270.873 M96.235 271.500 C 85.565 271.575,80.502 271.749,80.135 272.054 C 79.535 272.552,79.331 302.957,79.922 303.887 C 80.156 304.256,84.150 304.384,96.342 304.413 L 112.453 304.452 112.414 288.592 C 112.375 272.882,112.382 272.730,113.201 272.516 C 113.981 272.312,113.968 272.268,112.968 271.750 C 112.385 271.447,111.884 271.243,111.854 271.295 C 111.824 271.348,104.796 271.440,96.235 271.500 M111.400 288.079 L 111.400 303.400 96.079 303.400 L 80.757 303.400 80.762 288.200 C 80.765 279.840,80.774 272.910,80.783 272.800 C 80.792 272.690,87.685 272.636,96.100 272.679 L 111.400 272.759 111.400 288.079 M176.000 287.857 C 176.000 288.754,177.557 288.841,192.387 288.775 L 207.400 288.709 207.400 304.054 L 207.400 319.400 191.700 319.505 C 179.542 319.586,176.000 319.721,176.000 320.105 C 176.000 320.767,207.072 320.604,207.875 319.937 C 208.624 319.316,208.648 288.608,207.900 288.124 C 207.059 287.580,175.999 287.320,176.000 287.857 M111.467 319.467 C 111.324 319.610,111.366 319.923,111.560 320.163 C 111.755 320.403,112.002 320.960,112.111 321.400 C 112.289 322.125,112.312 322.115,112.354 321.300 C 112.386 320.662,112.662 320.386,113.300 320.354 C 114.115 320.312,114.125 320.289,113.400 320.111 C 112.960 320.002,112.403 319.755,112.163 319.560 C 111.923 319.366,111.610 319.324,111.467 319.467 M288.040 350.873 C 288.008 351.733,287.781 351.973,286.900 352.080 L 285.800 352.213 286.897 352.451 C 288.236 352.740,288.774 352.141,288.376 350.800 L 288.080 349.800 288.040 350.873 M127.467 351.467 C 127.324 351.610,127.366 351.923,127.560 352.163 C 127.755 352.403,128.002 352.960,128.111 353.400 C 128.289 354.125,128.312 354.115,128.354 353.300 C 128.386 352.662,128.662 352.386,129.300 352.354 C 130.115 352.312,130.125 352.289,129.400 352.111 C 128.960 352.002,128.403 351.755,128.163 351.560 C 127.923 351.366,127.610 351.324,127.467 351.467 M223.467 351.467 C 223.324 351.610,223.366 351.923,223.560 352.163 C 223.755 352.403,224.002 352.960,224.111 353.400 C 224.289 354.125,224.312 354.115,224.354 353.300 C 224.386 352.662,224.662 352.386,225.300 352.354 C 226.115 352.312,226.125 352.289,225.400 352.111 C 224.960 352.002,224.403 351.755,224.163 351.560 C 223.923 351.366,223.610 351.324,223.467 351.467 M272.040 366.873 C 272.008 367.733,271.781 367.973,270.900 368.080 L 269.800 368.213 270.897 368.451 C 272.236 368.740,272.774 368.141,272.376 366.800 L 272.080 365.800 272.040 366.873 M239.467 367.467 C 239.324 367.610,239.366 367.923,239.560 368.163 C 239.755 368.403,240.002 368.960,240.111 369.400 C 240.289 370.125,240.312 370.115,240.354 369.300 C 240.386 368.662,240.662 368.386,241.300 368.354 C 242.115 368.312,242.125 368.289,241.400 368.111 C 240.960 368.002,240.403 367.755,240.163 367.560 C 239.923 367.366,239.610 367.324,239.467 367.467 " stroke="none" fill="#a38b3b" fill-rule="evenodd"></path><path id="path3" d="M273.289 214.250 C 273.240 217.798,273.088 221.263,272.950 221.950 L 272.700 223.200 279.950 223.200 L 287.200 223.200 287.200 215.776 C 287.200 210.929,287.061 208.439,286.800 208.600 C 286.562 208.747,286.400 211.317,286.400 214.962 C 286.400 222.764,286.717 222.400,279.930 222.400 C 273.304 222.400,273.655 222.838,273.500 214.380 L 273.379 207.800 273.289 214.250 M112.800 216.000 L 112.800 223.200 120.000 223.200 L 127.200 223.200 127.200 216.000 L 127.200 208.800 120.000 208.800 L 112.800 208.800 112.800 216.000 M125.669 210.262 C 126.709 211.204,126.766 220.532,125.738 221.669 C 124.796 222.709,115.468 222.766,114.331 221.738 C 113.262 220.770,113.237 211.598,114.300 210.433 C 115.285 209.354,124.512 209.215,125.669 210.262 M96.800 240.000 L 96.800 255.200 104.224 255.200 C 109.071 255.200,111.561 255.061,111.400 254.800 C 111.253 254.562,108.683 254.400,105.038 254.400 C 96.803 254.400,97.600 255.936,97.600 240.069 C 97.600 224.279,97.003 225.600,104.138 225.600 C 110.689 225.600,110.400 225.254,110.400 233.108 C 110.400 236.706,110.562 239.253,110.800 239.400 C 111.061 239.561,111.200 237.071,111.200 232.224 L 111.200 224.800 104.000 224.800 L 96.800 224.800 96.800 240.000 M289.105 231.500 C 289.278 240.401,289.478 241.295,289.546 233.464 C 289.615 225.353,289.377 225.632,296.238 225.613 C 302.985 225.595,302.400 224.222,302.400 240.070 C 302.400 255.957,303.216 254.400,294.892 254.400 C 291.294 254.400,288.747 254.562,288.600 254.800 C 288.439 255.061,290.929 255.200,295.776 255.200 L 303.200 255.200 303.200 240.000 L 303.200 224.800 296.088 224.800 L 288.975 224.800 289.105 231.500 M112.600 241.200 C 112.757 241.454,117.983 241.600,126.962 241.600 C 144.133 241.600,142.400 240.757,142.400 249.108 C 142.400 252.706,142.562 255.253,142.800 255.400 C 143.061 255.561,143.200 253.071,143.200 248.224 L 143.200 240.800 127.776 240.800 C 117.596 240.800,112.437 240.936,112.600 241.200 M192.800 248.200 C 192.800 252.867,192.948 255.600,193.200 255.600 C 193.449 255.600,193.600 253.267,193.600 249.400 C 193.600 240.472,186.688 241.600,241.400 241.600 C 271.933 241.600,287.600 241.464,287.600 241.200 C 287.600 240.936,271.533 240.800,240.200 240.800 L 192.800 240.800 192.800 248.200 M224.600 254.800 C 224.437 255.064,229.670 255.200,240.000 255.200 C 250.330 255.200,255.563 255.064,255.400 254.800 C 255.242 254.545,249.670 254.400,240.000 254.400 C 230.330 254.400,224.758 254.545,224.600 254.800 M112.800 263.776 L 112.800 271.200 120.224 271.200 C 125.071 271.200,127.561 271.061,127.400 270.800 C 127.253 270.562,124.683 270.400,121.038 270.400 C 113.129 270.400,113.600 270.875,113.600 262.892 C 113.600 259.294,113.438 256.747,113.200 256.600 C 112.939 256.439,112.800 258.929,112.800 263.776 M222.667 256.667 C 222.520 256.813,222.400 259.665,222.400 263.005 C 222.400 271.335,225.371 270.400,198.892 270.400 C 184.627 270.400,176.760 270.541,176.600 270.800 C 176.436 271.065,184.263 271.200,199.776 271.200 L 223.200 271.200 223.200 263.800 C 223.200 259.730,223.140 256.400,223.067 256.400 C 222.993 256.400,222.813 256.520,222.667 256.667 M286.667 256.667 C 286.227 257.106,286.354 271.124,286.800 271.400 C 287.061 271.562,287.200 269.004,287.200 264.024 C 287.200 259.831,287.140 256.400,287.067 256.400 C 286.993 256.400,286.813 256.520,286.667 256.667 M144.600 257.200 C 144.760 257.459,153.071 257.600,168.224 257.600 C 183.541 257.600,191.600 257.462,191.600 257.200 C 191.600 256.938,183.459 256.800,167.976 256.800 C 152.329 256.800,144.436 256.935,144.600 257.200 M257.367 264.200 C 257.367 268.380,257.426 270.036,257.498 267.879 C 257.571 265.723,257.570 262.303,257.498 260.279 C 257.425 258.256,257.366 260.020,257.367 264.200 M128.800 287.976 C 128.800 298.125,128.940 303.600,129.200 303.600 C 129.460 303.600,129.600 298.208,129.600 288.224 C 129.600 278.404,129.455 272.758,129.200 272.600 C 128.936 272.437,128.800 277.663,128.800 287.976 M174.667 272.667 C 174.227 273.106,174.354 287.124,174.800 287.400 C 175.061 287.562,175.200 285.004,175.200 280.024 C 175.200 275.831,175.140 272.400,175.067 272.400 C 174.993 272.400,174.813 272.520,174.667 272.667 M224.800 312.000 L 224.800 351.200 232.224 351.200 C 237.071 351.200,239.561 351.061,239.400 350.800 C 239.253 350.562,236.683 350.400,233.038 350.400 C 227.623 350.400,226.848 350.316,226.262 349.669 C 225.126 348.413,225.260 275.540,226.400 274.400 C 227.170 273.630,227.733 273.600,241.400 273.600 C 250.600 273.600,255.600 273.459,255.600 273.200 C 255.600 272.940,250.200 272.800,240.200 272.800 L 224.800 272.800 224.800 312.000 M288.600 273.200 C 288.747 273.438,291.317 273.600,294.962 273.600 C 303.332 273.600,302.400 270.786,302.400 296.070 C 302.400 321.231,303.352 318.400,294.892 318.400 C 291.294 318.400,288.747 318.562,288.600 318.800 C 288.439 319.061,290.929 319.200,295.776 319.200 L 303.200 319.200 303.200 296.000 L 303.200 272.800 295.776 272.800 C 290.929 272.800,288.439 272.939,288.600 273.200 M175.782 304.200 C 175.782 312.780,175.835 316.233,175.900 311.874 C 175.964 307.514,175.964 300.494,175.899 296.274 C 175.835 292.053,175.782 295.620,175.782 304.200 M112.800 312.000 L 112.800 319.200 120.224 319.200 C 125.071 319.200,127.561 319.061,127.400 318.800 C 127.253 318.562,124.683 318.400,121.038 318.400 C 113.253 318.400,113.600 318.696,113.600 312.069 C 113.600 305.369,113.321 305.600,121.400 305.600 C 125.267 305.600,127.600 305.449,127.600 305.200 C 127.600 304.948,124.867 304.800,120.200 304.800 L 112.800 304.800 112.800 312.000 M128.800 335.776 L 128.800 351.200 136.224 351.200 C 141.071 351.200,143.561 351.061,143.400 350.800 C 143.253 350.562,140.683 350.400,137.038 350.400 C 128.775 350.400,129.600 352.121,129.600 334.892 C 129.600 325.960,129.454 320.757,129.200 320.600 C 128.936 320.437,128.800 325.596,128.800 335.776 M174.667 320.667 C 174.227 321.106,174.354 335.124,174.800 335.400 C 175.061 335.562,175.200 333.004,175.200 328.024 C 175.200 323.831,175.140 320.400,175.067 320.400 C 174.993 320.400,174.813 320.520,174.667 320.667 M286.667 320.667 C 286.520 320.813,286.400 327.265,286.400 335.005 C 286.400 352.126,287.242 350.400,278.892 350.400 C 275.294 350.400,272.747 350.562,272.600 350.800 C 272.439 351.061,274.929 351.200,279.776 351.200 L 287.200 351.200 287.200 335.800 C 287.200 327.330,287.140 320.400,287.067 320.400 C 286.993 320.400,286.813 320.520,286.667 320.667 M96.800 344.200 C 96.800 359.533,96.938 367.600,97.200 367.600 C 97.462 367.600,97.600 359.933,97.600 345.400 C 97.600 318.811,96.834 321.600,104.138 321.600 C 111.025 321.600,110.400 320.051,110.400 337.108 C 110.400 346.040,110.546 351.243,110.800 351.400 C 111.064 351.563,111.200 346.404,111.200 336.224 L 111.200 320.800 104.000 320.800 L 96.800 320.800 96.800 344.200 M176.600 337.200 C 176.757 337.454,181.983 337.600,190.962 337.600 C 208.133 337.600,206.400 336.757,206.400 345.108 C 206.400 348.706,206.562 351.253,206.800 351.400 C 207.061 351.561,207.200 349.071,207.200 344.224 L 207.200 336.800 191.776 336.800 C 181.596 336.800,176.437 336.936,176.600 337.200 M144.800 359.976 C 144.800 364.792,144.947 367.600,145.200 367.600 C 145.452 367.600,145.600 364.875,145.600 360.224 C 145.600 355.737,145.443 352.750,145.200 352.600 C 144.939 352.438,144.800 354.996,144.800 359.976 M240.800 359.776 L 240.800 367.200 256.000 367.200 L 271.200 367.200 271.200 359.776 C 271.200 354.929,271.061 352.439,270.800 352.600 C 270.562 352.747,270.400 355.317,270.400 358.962 C 270.400 367.201,271.958 366.400,255.930 366.400 C 240.043 366.400,241.600 367.216,241.600 358.892 C 241.600 355.294,241.438 352.747,241.200 352.600 C 240.939 352.439,240.800 354.929,240.800 359.776 M112.600 353.200 C 112.747 353.438,115.317 353.600,118.962 353.600 C 126.871 353.600,126.400 353.125,126.400 361.108 C 126.400 364.706,126.562 367.253,126.800 367.400 C 127.061 367.561,127.200 365.071,127.200 360.224 L 127.200 352.800 119.776 352.800 C 114.929 352.800,112.439 352.939,112.600 353.200 M208.600 353.200 C 208.747 353.438,211.317 353.600,214.962 353.600 C 222.871 353.600,222.400 353.125,222.400 361.108 C 222.400 364.706,222.562 367.253,222.800 367.400 C 223.061 367.561,223.200 365.071,223.200 360.224 L 223.200 352.800 215.776 352.800 C 210.929 352.800,208.439 352.939,208.600 353.200 M289.105 359.500 C 289.278 368.401,289.478 369.295,289.546 361.464 C 289.615 353.353,289.377 353.632,296.238 353.613 C 302.674 353.596,302.400 353.263,302.400 361.108 C 302.400 364.706,302.562 367.253,302.800 367.400 C 303.061 367.561,303.200 365.071,303.200 360.224 L 303.200 352.800 296.088 352.800 L 288.975 352.800 289.105 359.500 M80.800 376.000 L 80.800 383.200 160.000 383.200 L 239.200 383.200 239.200 376.000 L 239.200 368.800 231.776 368.800 C 226.929 368.800,224.439 368.939,224.600 369.200 C 224.747 369.438,227.317 369.600,230.962 369.600 C 238.764 369.600,238.400 369.283,238.400 376.070 C 238.400 380.412,238.303 381.164,237.669 381.738 C 236.473 382.820,83.242 382.751,82.262 381.669 C 81.722 381.072,81.600 380.037,81.600 376.069 C 81.600 369.369,81.321 369.600,89.400 369.600 C 93.267 369.600,95.600 369.449,95.600 369.200 C 95.600 368.948,92.867 368.800,88.200 368.800 L 80.800 368.800 80.800 376.000 M128.600 369.200 C 128.750 369.443,131.737 369.600,136.224 369.600 C 140.875 369.600,143.600 369.452,143.600 369.200 C 143.600 368.947,140.792 368.800,135.976 368.800 C 130.996 368.800,128.438 368.939,128.600 369.200 M273.000 376.000 L 273.000 383.200 296.100 383.200 L 319.200 383.200 319.200 376.000 L 319.200 368.800 311.776 368.800 C 306.929 368.800,304.439 368.939,304.600 369.200 C 304.747 369.438,307.317 369.600,310.962 369.600 C 318.764 369.600,318.400 369.283,318.400 376.070 C 318.400 383.139,321.022 382.400,295.930 382.400 C 270.956 382.400,273.600 383.154,273.600 376.033 C 273.600 369.428,273.350 369.631,281.500 369.613 C 285.291 369.605,287.600 369.449,287.600 369.200 C 287.600 368.948,284.900 368.800,280.300 368.800 L 273.000 368.800 273.000 376.000 " stroke="none" fill="#54bcfc" fill-rule="evenodd"></path><path id="path4" d="M287.200 7.600 L 287.200 15.200 271.200 15.200 L 255.200 15.200 255.200 23.200 L 255.200 31.200 247.200 31.200 L 239.200 31.200 239.200 39.200 L 239.200 47.200 223.200 47.200 L 207.200 47.200 207.200 55.200 L 207.200 63.200 191.200 63.200 L 175.200 63.200 175.200 71.200 L 175.200 79.200 127.200 79.200 L 79.200 79.200 79.200 87.200 L 79.200 95.200 71.200 95.200 L 63.200 95.200 63.200 104.000 L 63.200 112.800 71.200 112.800 L 79.200 112.800 79.200 120.800 L 79.200 128.800 87.200 128.800 L 95.200 128.800 95.200 136.800 L 95.200 144.800 111.200 144.800 L 127.200 144.800 127.200 152.800 L 127.200 160.800 135.200 160.800 L 143.200 160.800 143.200 168.000 L 143.200 175.200 135.200 175.200 L 127.200 175.200 127.200 183.200 L 127.200 191.200 119.200 191.200 L 111.200 191.200 111.200 199.200 L 111.200 207.200 103.200 207.200 L 95.200 207.200 95.200 215.200 L 95.200 223.200 87.200 223.200 L 79.200 223.200 79.200 247.200 L 79.200 271.200 71.200 271.200 L 63.200 271.200 63.200 288.000 L 63.200 304.800 71.200 304.800 L 79.200 304.800 79.200 336.000 L 79.200 367.200 71.200 367.200 L 63.200 367.200 63.200 376.000 L 63.200 384.800 71.200 384.800 L 79.200 384.800 79.200 392.400 L 79.200 400.000 160.000 400.000 L 240.800 400.000 240.800 392.400 L 240.800 384.800 256.000 384.800 L 271.200 384.800 271.200 392.400 L 271.200 400.000 296.000 400.000 L 320.800 400.000 320.800 392.400 L 320.800 384.800 328.800 384.800 L 336.800 384.800 336.800 376.000 L 336.800 367.200 328.800 367.200 L 320.800 367.200 320.800 359.200 L 320.800 351.200 312.800 351.200 L 304.800 351.200 304.800 336.000 L 304.800 320.800 312.800 320.800 L 320.800 320.800 320.800 296.000 L 320.800 271.200 312.800 271.200 L 304.800 271.200 304.800 264.000 L 304.800 256.800 312.800 256.800 L 320.800 256.800 320.800 248.800 L 320.800 240.800 328.800 240.800 L 336.800 240.800 336.800 232.800 L 336.800 224.800 344.800 224.800 L 352.800 224.800 352.800 208.000 L 352.800 191.200 344.800 191.200 L 336.800 191.200 336.800 183.200 L 336.800 175.200 328.800 175.200 L 320.800 175.200 320.800 167.200 L 320.800 159.200 312.800 159.200 L 304.800 159.200 304.800 151.200 L 304.800 143.200 297.000 143.200 L 289.200 143.200 289.200 136.000 L 289.200 128.800 297.000 128.800 L 304.800 128.800 304.800 104.800 L 304.800 80.800 312.800 80.800 L 320.800 80.800 320.800 64.800 L 320.800 48.800 328.800 48.800 L 336.800 48.800 336.800 32.000 L 336.800 15.200 328.800 15.200 L 320.800 15.200 320.800 7.600 L 320.800 0.000 304.000 0.000 L 287.200 0.000 287.200 7.600 M319.936 15.952 C 320.459 16.283,320.323 47.410,319.797 47.937 C 319.692 48.042,316.353 48.087,312.376 48.037 C 307.148 47.971,304.984 48.081,304.558 48.435 C 304.055 48.852,303.975 51.195,304.019 64.294 C 304.047 72.747,303.965 79.768,303.837 79.897 C 303.708 80.025,300.463 80.089,296.625 80.038 C 286.766 79.908,287.970 76.521,288.013 104.262 C 288.033 117.145,287.949 127.785,287.826 127.907 C 287.703 128.030,284.463 128.089,280.625 128.038 C 271.226 127.914,272.000 127.206,272.000 135.934 C 272.000 144.783,271.177 144.000,280.480 144.000 C 286.212 144.000,288.008 144.119,288.033 144.500 C 288.051 144.775,288.037 148.115,288.003 151.923 C 287.922 160.771,287.116 160.000,296.449 160.000 C 302.206 160.000,304.008 160.119,304.033 160.500 C 304.051 160.775,304.037 164.115,304.003 167.923 C 303.922 176.771,303.116 176.000,312.449 176.000 C 318.206 176.000,320.008 176.119,320.033 176.500 C 320.051 176.775,320.037 180.115,320.003 183.923 C 319.922 192.771,319.116 192.000,328.449 192.000 C 334.218 192.000,336.002 192.118,336.010 192.500 C 336.110 197.468,335.990 223.743,335.867 223.866 C 335.773 223.960,328.760 224.074,320.282 224.118 C 311.803 224.163,304.717 224.350,304.533 224.533 C 304.350 224.717,304.163 231.803,304.118 240.282 C 304.074 248.760,303.939 255.794,303.820 255.913 C 303.701 256.033,300.463 256.089,296.625 256.038 C 287.226 255.914,288.000 255.206,288.000 263.934 C 288.000 272.771,287.211 272.000,296.256 272.000 C 300.480 272.000,303.653 272.162,303.790 272.384 C 304.083 272.858,304.107 319.626,303.814 319.919 C 303.698 320.035,300.463 320.089,296.625 320.038 C 286.916 319.910,287.992 317.996,288.040 335.314 C 288.062 343.281,288.205 350.250,288.358 350.800 L 288.635 351.800 296.007 351.909 C 300.061 351.970,303.549 352.189,303.757 352.397 C 303.973 352.613,304.093 355.782,304.037 359.810 C 303.913 368.777,303.136 368.000,312.225 368.000 C 316.990 368.000,319.645 368.149,319.817 368.427 C 320.110 368.901,320.179 383.555,319.890 383.844 C 319.560 384.173,272.674 384.034,272.343 383.703 C 272.165 383.525,271.970 380.065,271.909 376.014 L 271.800 368.650 270.471 368.306 C 268.794 367.872,240.983 368.083,240.533 368.533 C 240.350 368.716,240.170 372.196,240.134 376.266 C 240.098 380.335,239.991 383.742,239.897 383.837 C 239.567 384.166,80.645 384.005,80.315 383.675 C 80.132 383.492,80.031 379.935,80.091 375.771 L 80.200 368.200 87.658 368.091 C 93.243 368.010,95.227 367.850,95.555 367.454 C 95.859 367.088,96.025 359.776,96.097 343.563 L 96.200 320.200 103.570 320.091 C 112.849 319.953,112.043 320.751,111.909 311.844 L 111.800 304.600 96.021 304.495 C 84.008 304.416,80.166 304.272,79.927 303.895 C 79.333 302.960,79.532 272.555,80.135 272.054 C 80.502 271.749,85.558 271.577,96.235 271.505 L 111.800 271.400 111.909 264.252 C 112.049 255.143,112.806 255.920,103.914 256.038 C 99.664 256.094,96.614 255.974,96.381 255.741 C 96.137 255.497,96.030 249.527,96.095 239.775 L 96.200 224.200 103.658 224.091 C 112.774 223.959,111.954 224.787,112.091 215.570 L 112.200 208.200 119.771 208.091 C 124.011 208.030,127.504 208.144,127.710 208.350 C 128.213 208.853,128.187 223.173,127.682 223.678 C 127.454 223.906,124.216 224.101,120.076 224.137 C 116.111 224.172,112.717 224.350,112.533 224.533 C 111.967 225.098,111.859 238.748,112.416 239.419 C 112.822 239.909,115.310 240.000,128.225 240.000 C 139.517 240.000,143.629 240.124,143.843 240.469 C 144.002 240.727,144.089 244.067,144.036 247.892 C 143.968 252.831,144.079 255.013,144.419 255.423 C 145.104 256.248,190.858 256.294,191.542 255.470 C 191.817 255.139,192.022 252.180,192.091 247.570 L 192.200 240.200 239.561 240.098 C 273.752 240.025,287.072 239.872,287.461 239.549 C 288.211 238.927,288.247 225.007,287.500 224.524 C 287.225 224.346,283.871 224.165,280.047 224.123 C 276.223 224.080,272.848 223.951,272.547 223.835 C 272.097 223.662,272.000 220.892,272.000 208.262 C 272.000 195.554,271.903 192.817,271.438 192.432 C 271.029 192.092,266.778 191.980,255.859 192.019 C 247.599 192.049,240.652 191.956,240.421 191.813 C 240.151 191.646,240.000 188.920,240.000 184.225 C 240.000 178.460,239.882 176.800,239.444 176.437 C 239.038 176.099,232.706 175.986,215.847 176.013 C 203.174 176.033,192.624 175.938,192.402 175.801 C 192.156 175.649,192.000 172.707,192.000 168.225 C 192.000 162.460,191.882 160.800,191.444 160.437 C 191.038 160.100,184.713 159.982,167.944 160.000 C 155.325 160.014,144.775 160.019,144.500 160.012 C 144.118 160.003,144.000 158.216,144.000 152.449 C 144.000 143.116,144.771 143.922,135.923 144.003 C 132.115 144.037,128.775 144.051,128.500 144.033 C 128.119 144.008,128.000 142.206,128.000 136.449 C 128.000 130.452,127.884 128.802,127.438 128.432 C 127.030 128.093,122.773 127.975,111.938 128.001 C 103.722 128.020,96.775 128.028,96.500 128.018 C 96.118 128.004,96.000 126.212,96.000 120.443 C 96.000 111.445,97.020 112.400,87.410 112.400 C 81.100 112.400,80.052 112.312,79.843 111.767 C 79.315 110.393,79.577 96.517,80.139 96.051 C 80.528 95.728,93.848 95.575,128.039 95.502 L 175.400 95.400 175.509 87.942 C 175.590 82.371,175.751 80.373,176.144 80.047 C 176.499 79.752,181.660 79.576,192.035 79.505 L 207.400 79.400 207.509 71.942 C 207.590 66.371,207.751 64.373,208.144 64.047 C 208.499 63.752,213.660 63.576,224.035 63.505 L 239.400 63.400 239.509 56.030 C 239.646 46.813,238.826 47.641,247.942 47.509 L 255.400 47.400 255.509 39.942 C 255.590 34.371,255.751 32.373,256.144 32.047 C 256.499 31.752,261.660 31.576,272.035 31.505 L 287.400 31.400 287.509 24.030 C 287.578 19.420,287.783 16.461,288.058 16.130 C 288.568 15.515,318.979 15.345,319.936 15.952 M159.626 176.014 C 160.580 176.525,160.861 206.979,159.920 207.920 C 159.000 208.840,144.521 208.573,144.014 207.626 C 143.389 206.458,143.451 176.709,144.080 176.080 C 144.695 175.465,158.490 175.406,159.626 176.014 M207.626 192.014 C 208.580 192.525,208.861 222.979,207.920 223.920 C 207.000 224.840,192.521 224.573,192.014 223.626 C 191.265 222.226,191.464 192.993,192.229 192.229 C 192.981 191.476,206.274 191.291,207.626 192.014 M288.642 208.520 C 287.881 209.077,287.776 222.344,288.524 223.500 C 288.974 224.196,302.825 224.215,303.520 223.520 C 303.857 223.183,304.000 220.942,304.000 216.000 C 304.000 211.058,303.857 208.817,303.520 208.480 C 302.816 207.776,289.611 207.811,288.642 208.520 M224.416 256.581 C 223.866 257.243,223.963 270.634,224.524 271.500 C 224.982 272.208,254.813 272.227,255.520 271.520 C 255.857 271.183,256.000 268.942,256.000 264.000 C 256.000 259.058,255.857 256.817,255.520 256.480 C 254.744 255.704,225.064 255.800,224.416 256.581 M113.295 272.414 L 112.391 272.778 112.495 288.289 L 112.600 303.800 119.748 303.909 C 124.680 303.985,127.066 303.877,127.448 303.560 C 128.203 302.934,128.272 273.232,127.520 272.480 C 126.942 271.902,114.710 271.846,113.295 272.414 M176.450 272.540 C 176.121 272.937,176.014 275.232,176.091 280.252 L 176.200 287.400 191.800 287.600 C 200.380 287.710,207.625 287.946,207.900 288.124 C 208.609 288.582,208.628 319.212,207.920 319.920 C 207.564 320.276,203.554 320.400,192.353 320.400 C 184.055 320.400,176.981 320.509,176.633 320.643 C 175.814 320.957,175.673 334.713,176.480 335.520 C 176.837 335.877,180.893 336.000,192.256 336.000 C 203.524 336.000,207.629 336.124,207.843 336.469 C 208.002 336.727,208.089 340.067,208.036 343.892 C 207.968 348.831,208.079 351.013,208.419 351.423 C 209.054 352.188,222.763 352.277,223.520 351.520 C 224.234 350.806,224.215 272.986,223.500 272.524 C 222.520 271.889,176.977 271.905,176.450 272.540 M113.346 320.276 C 112.770 320.389,112.411 320.845,112.246 321.672 C 111.756 324.120,111.967 351.007,112.480 351.520 C 112.817 351.857,115.058 352.000,120.000 352.000 C 124.942 352.000,127.183 351.857,127.520 351.520 C 128.209 350.831,128.209 321.169,127.520 320.480 C 127.059 320.019,115.508 319.853,113.346 320.276 M129.346 352.276 C 128.185 352.504,128.000 353.697,128.000 360.970 C 128.000 368.599,127.318 368.000,136.000 368.000 C 140.942 368.000,143.183 367.857,143.520 367.520 C 144.195 366.845,144.195 353.155,143.520 352.480 C 143.059 352.019,131.508 351.853,129.346 352.276 M225.346 352.276 C 224.185 352.504,224.000 353.697,224.000 360.970 C 224.000 368.599,223.318 368.000,232.000 368.000 C 236.942 368.000,239.183 367.857,239.520 367.520 C 239.857 367.183,240.000 364.942,240.000 360.000 C 240.000 355.058,239.857 352.817,239.520 352.480 C 239.059 352.019,227.508 351.853,225.346 352.276 M272.666 352.494 C 271.883 353.076,271.757 366.316,272.524 367.500 C 272.974 368.196,286.825 368.215,287.520 367.520 C 288.215 366.825,288.196 352.974,287.500 352.524 C 286.556 351.913,273.483 351.886,272.666 352.494 " stroke="none" fill="#040404" fill-rule="evenodd"></path></g></svg>